<svg viewBox="0 0 450 150" xmlns="http://www.w3.org/2000/svg"><g fill="none"><path d="M106.951 29.433l-29.496-28.471-28.579 28.471h58.075z" fill="#f00"/><path d="M6.59 23.806c0-15.299 7.653-22.845 23.173-22.845h11.905v18.234h-7.653c-4.04 0-5.953 1.886-5.953 5.868v9.64h12.968v18.443h-12.968v96.617h-21.473v-96.617h-6.59v-18.443h6.59v-10.898zm103.112 125.957h-21.26v-7.545c-5.315 4.82-11.48 8.801-20.41 8.801h-.85c-12.544 0-18.922-6.915-18.922-19.7v-96.617h21.474v90.328c0 4.611 2.338 6.707 7.015 6.707 4.039 0 7.653-1.257 11.48-3.562v-93.472h21.473v115.06zm12.756-148.802h21.473v148.803h-21.473v-148.803zm73.557 59.312c0-5.239-2.551-7.755-7.866-7.755h-2.551c-5.102 0-7.653 2.516-7.653 7.755v63.921c0 5.24 2.551 7.754 7.653 7.754h2.764c5.315 0 7.867-2.514 7.867-7.754v-23.263h21.046v24.52c0 16.976-8.716 25.569-25.937 25.569h-8.929c-17.221 0-25.937-8.594-25.937-25.569v-66.436c0-16.977 8.716-25.569 25.937-25.569h8.929c17.008 0 25.724 8.383 25.724 25.36v20.957h-21.047v-19.49zm32.741-25.569h21.262v12.366c4.89-9.222 9.567-13.413 18.071-13.413v23.472c-7.866.629-13.392 2.724-17.859 6.706v85.928h-21.475v-115.06zm109.065 115.06h-21.258v-7.545c-5.316 4.82-11.481 8.801-20.411 8.801h-.849c-12.545 0-18.921-6.915-18.921-19.7v-96.617h21.471v90.328c0 4.611 2.34 6.707 7.017 6.707 4.038 0 7.653-1.257 11.481-3.562v-93.472h21.471v115.06zm73.134 0h-21.684v-90.538c0-4.401-1.913-6.497-6.378-6.497-3.828 0-7.229 1.257-11.267 3.564v93.472h-21.473v-115.061h21.26v7.545c5.526-4.82 11.694-8.802 20.196-8.802h.851c8.292 0 13.818 3.353 16.581 9.64 6.167-5.659 12.545-9.64 21.686-9.64h.851c11.904 0 18.495 6.916 18.495 19.491v96.827h-21.473v-90.539c0-4.401-2.125-6.497-6.588-6.497-3.828 0-7.229 1.257-11.057 3.564v93.471h-.002z" fill="#000"/></g></svg>